<svg xmlns="http://www.w3.org/2000/svg" version="1.1" xmlns:xlink="http://www.w3.org/1999/xlink" xmlns:svgjs="http://svgjs.dev/svgjs" width="1000" height="1125" viewBox="0 0 1000 1125"><g transform="matrix(1,0,0,1,0.0003671874999895408,0)"><svg viewBox="0 0 320 360" data-background-color="#ffffff" preserveAspectRatio="xMidYMid meet" height="1125" width="1000" xmlns="http://www.w3.org/2000/svg" xmlns:xlink="http://www.w3.org/1999/xlink"><g id="tight-bounds" transform="matrix(1,0,0,1,-0.00007049999999253487,0)"><svg viewBox="0 0 320 360" height="360" width="320"><rect width="320.000188" height="360" fill="url(#276f57d7-95b6-4691-83ee-dec8be9152de)" mask="url(#ce1890ae-0548-4cd5-9487-f660b4af807f)" data-fill-palette-color="tertiary"></rect><g><svg></svg></g><g><svg viewBox="0 0 320 360" height="360" width="320"><g><path transform="translate(-74.99272,-51.79039) scale(4.65793,4.65793)" d="M20.6 59.9l0.8 1-0.4-1.3c-0.1-0.6-0.8 0.1-0.4 0.3M21.5 59.3c0.3 0.5 0.6 1 0.6 1.5 0 0.7 0.6 1 1.1 1.2-0.7-0.8-1.1-3-1.7-2.7M59.9 16.9c1.7 0 3.3-0.2 5.1 0.2 4.4 1.1 8.1 3.3 10.6 6.4l7 11.2c0.3 2.8 0.9 5.9 0.8 9.3 0.7 0 0.6-1 1.4-1.2-0.8 2-1.2 4.5-1.4 7.4-0.5-1.6 0-4 0.1-5.3-0.7 1.1-1.1 0.3-1.1-0.2 0.1-0.8-0.3-0.7-0.6-1-1.1-1-1.8-2.1-2.6-3.8 0.5-1.3 0.6-3.2-1-4.2-0.5-0.3-1.1-0.8-1.4-1.6-0.4-1.1-1.1-2.4-0.9-4.1 0.1-0.5-1.5 1.1-2.4 0.4-3.9-2.7-7.8-5.8-12.5-8.4-2.5 0-4.3-0.9-5.2-2-0.8-1-0.2-2.3 1-2.4 0.7 0 1.5-0.2 2.1 0.2 0.1-0.4 0.5-0.9 1-0.9M50 14.6l0.2 0.1c1 0.2 1.5 1.6 2.6 1.1 0 0.7 0.1 1.4-0.1 1.9-0.3 0.8-1.2 0.8-1.9 0.8-6.7-0.4-10.6 2.4-14.7 4.8-1.1 0.7-2.3 1.2-3.2 2.1-4.3 4-9 7.7-10.1 15.1l-0.9 8.2c-0.1 0.9-1.1 1.8-0.9 2.9l0.7 4.9c-0.7-0.7-1.1 0.2-0.9 0.6 0.1 0.3 0.5 1.3 1.1 0.4 0.8 1.5 1.6 4.4 2.7 5.7 3.4 4 7.8 7.6 11.4 11.2 0.9-0.2 1.6-0.2 1.8-0.8 0.3 0.6-0.3 1.2-0.8 1.3 1.6 1 3.4 1.9 5.8 2.1 3.1 0.2 6 0.7 8.7 1.4 1.4-0.4 2.8-0.6 4.3-0.7 0.5 0 0.8-0.8 1.4-1l0.1-1c0.6 0.9 0.5-0.3 0.1-0.9 0.7 0.6 0.9 1.1 1.2 1.5 0-0.3 0.8-1.4 0.8-0.1l0.2-1.3c0.3-0.2 0.4 1.1 0.7 0.2 0.3-0.9 0.9-0.2 1.5-0.5-0.2 0.4-0.1 1.2 0.6 0.7l0.8-0.7c0.5 1.2 1.3 0.7 1.7 0.5 4.4-2.8 8.8-6.1 13-9.4l-0.1 1.3 0.5-1.6c0.5 0.5 0.9 0.1 1.1-0.2 0.6-1 1.4-2 2.7-2.9-1.6 4.3-3.5 7.7-5.9 10.5l-1 1.2c0 0.7-0.2 1.6-1 1.7-0.4 0.1-1.2-0.2-1.8 0.4-0.3 0.4 0.7 1.2-0.1 0.6-0.7-0.5-1.4 0-2.2 0.2-0.6 0.2 0.4 0.8 0.6 1.2 0.2 0.4 0.4 0.8 0.3 1.3l-1.1-1.2c-1.3 0.7-2.1 2-3.2 3-0.5 0.4-0.3 1.1-0.3 1.7-0.7 0-1.5-0.2-1.9 0.2-0.3 0.4-0.2 1-0.2 1.6-1-0.1-1.1-1.6-2-1.3-0.9 0.2-1.9 0.3-2.7 0.8 0.6 1.2-1 0.5-0.8 0.7-1.5-0.9-2.8-1.6-4.4-1-3.4-1.1-7.6-0.6-10.7-0.2 0-0.5 0.1-1-0.1-1.1-0.2 0.5-0.8 0.3-0.7 0.3-1.9-1.3-3.8-2.1-5.8-3.2-1.8 0.2-3.5-0.7-4-1.2-1.4-1.3-3-0.6-4.3-0.9-2.8-0.7-3.8-3.6-4.1-5.6-0.2-1-1-1.4-1.3-1.3-1.3-4.2-3.3-8-4.9-11.9-0.4-1-0.3-2-0.3-3.1 0.5 0.2 1 0.1 0.9-0.6-0.5-3.3-1.7-5.8-3-8.2 0.7-3.4 0.8-7.4 2.4-10.4 1.4-2.7 4-4.1 5.8-6.4 0.6-0.8 0.6-1.9 1.2-2.6 2-2 4-4.1 6.2-5.9 1-0.8 2.2 0 3.7-0.3 0.5-1.8 2.5-3.4 4.4-2.9 0.8 0.2 2.4-1.9 2.9-2.1 0.8-0.3 0.4 0.8 0.4 1.5 1.9-1.5 4.5-2.3 6.9-3.2" fill="url(#276f57d7-95b6-4691-83ee-dec8be9152de)" fill-rule="nonzero" stroke="none" stroke-width="1" stroke-linecap="butt" stroke-linejoin="miter" stroke-miterlimit="10" stroke-dasharray="" stroke-dashoffset="0" font-family="none" font-weight="none" font-size="none" text-anchor="none" style="mix-blend-mode: normal" data-fill-palette-color="tertiary"></path></g><g transform="matrix(1,0,0,1,102.10059048927549,90)"><svg viewBox="0 0 115.79881902144902 180" height="180" width="115.79881902144902"><g><svg viewBox="0 0 115.79881902144902 180" height="180" width="115.79881902144902"><g><svg viewBox="0 0 192 298.4486395634015" height="180" width="115.79881902144902"><g transform="matrix(1,0,0,1,0,116.0987871088237)"><svg viewBox="0 0 192 182.3498524545778" height="182.3498524545778" width="192"><g id="textblocktransform"><svg viewBox="0 0 192 182.3498524545778" height="182.3498524545778" width="192" id="textblock"><g><svg viewBox="0 0 192 146.83291770573564" height="146.83291770573564" width="192"><g transform="matrix(1,0,0,1,0,0)"><svg width="192" viewBox="-2.2 -36.2 60.150000000000006 46.00000000000001" height="146.83291770573564" data-palette-color="url(#9c1d80d4-8b99-4747-886f-92646faaa5f5)"></svg></g></svg></g><g transform="matrix(1,0,0,1,0,168.2593643890274)"><svg viewBox="0 0 192 14.09048806555041" height="14.09048806555041" width="192"><g transform="matrix(1,0,0,1,0,0)"><svg width="192" viewBox="2.55 -38.5 701.6700000000001 51.5" height="14.09048806555041" data-palette-color="url(#34c4a9eb-3b6c-4d83-bd92-7625273f9925)"></svg></g></svg></g></svg></g></svg></g><g transform="matrix(1,0,0,1,36.67199999999999,0)"><svg viewBox="0 0 118.65600000000002 94.67234042553193" height="94.67234042553193" width="118.65600000000002"><g><svg xmlns="http://www.w3.org/2000/svg" xmlns:xlink="http://www.w3.org/1999/xlink" version="1.1" x="0" y="0" viewBox="1 13 94 75" enable-background="new 0 0 96 96" xml:space="preserve" height="94.67234042553193" width="118.65600000000002" class="icon-icon-0" data-fill-palette-color="accent" id="icon-0"></svg></g></svg></g><g></g></svg></g></svg></g></svg></g></svg></g><defs></defs><mask id="11bf7268-4572-402c-bca9-5267ddaf4ff6"><g id="SvgjsG1179"><svg viewBox="0 0 320 360" height="360" width="320"><g><svg></svg></g><g><svg viewBox="0 0 320 360" height="360" width="320"><g></g><g transform="matrix(1,0,0,1,102.10059048927549,90)"><svg viewBox="0 0 115.79881902144902 180" height="180" width="115.79881902144902"><g><svg viewBox="0 0 115.79881902144902 180" height="180" width="115.79881902144902"><g><svg viewBox="0 0 192 298.4486395634015" height="180" width="115.79881902144902"><g transform="matrix(1,0,0,1,0,116.0987871088237)"><svg viewBox="0 0 192 182.3498524545778" height="182.3498524545778" width="192"><g id="SvgjsG1178"><svg viewBox="0 0 192 182.3498524545778" height="182.3498524545778" width="192" id="SvgjsSvg1177"><g><svg viewBox="0 0 192 146.83291770573564" height="146.83291770573564" width="192"><g transform="matrix(1,0,0,1,0,0)"><svg width="192" viewBox="-2.2 -36.2 60.150000000000006 46.00000000000001" height="146.83291770573564" data-palette-color="url(#9c1d80d4-8b99-4747-886f-92646faaa5f5)"><path d="M8.65-25.35L8.65 2.25Q8.65 5.8 6.78 7.8 4.9 9.8 1.45 9.8L1.45 9.8Q-0.15 9.8-2.2 9.05L-2.2 9.05-2.2 4.9Q-0.6 5.7 1 5.7L1 5.7Q3.75 5.7 3.75 2.15L3.75 2.15 3.75-25.35 8.65-25.35ZM9.25-33.1L9.25-33.1Q9.25-31.85 8.35-30.95 7.45-30.05 6.15-30.05L6.15-30.05Q4.9-30.05 4-30.93 3.1-31.8 3.1-33.1 3.1-34.4 3.98-35.3 4.85-36.2 6.15-36.2 7.45-36.2 8.35-35.3 9.25-34.4 9.25-33.1ZM31.8-10.65L28.7 0 22.5 0 13.65-33.7 19-33.7 22.15-21.25 25.85-5.45Q28.1-13.85 30.25-21.25L30.25-21.25 33.7-33.2 38.25-33.2 41.8-21.2 46.35-5.35Q48.2-14.45 49.8-21.2L49.8-21.2 52.75-33.7 57.95-33.7 49.7 0 43.55 0 40.35-10.65 36-25.7Q34.85-20.95 31.8-10.65L31.8-10.65Z" opacity="1" transform="matrix(1,0,0,1,0,0)" fill="white" class="wordmark-text-0" id="SvgjsPath1176"></path></svg></g></svg></g><g transform="matrix(1,0,0,1,0,168.2593643890274)"><svg viewBox="0 0 192 14.09048806555041" height="14.09048806555041" width="192"><g transform="matrix(1,0,0,1,0,0)"><svg width="192" viewBox="2.55 -38.5 701.6700000000001 51.5" height="14.09048806555041" data-palette-color="url(#34c4a9eb-3b6c-4d83-bd92-7625273f9925)"></svg></g></svg></g></svg></g></svg></g><g transform="matrix(1,0,0,1,36.67199999999999,0)"><svg viewBox="0 0 118.65600000000002 94.67234042553193" height="94.67234042553193" width="118.65600000000002"><g><svg xmlns="http://www.w3.org/2000/svg" xmlns:xlink="http://www.w3.org/1999/xlink" version="1.1" x="0" y="0" viewBox="1 13 94 75" enable-background="new 0 0 96 96" xml:space="preserve" height="94.67234042553193" width="118.65600000000002" class="icon-icon-0" data-fill-palette-color="accent" id="SvgjsSvg1174"></svg></g></svg></g><g></g></svg></g></svg></g></svg></g></svg></g><defs><mask></mask></defs></svg></g></mask><linearGradient x1="0.054" x2="0.941" y1="0.5" y2="0.5" id="9c1d80d4-8b99-4747-886f-92646faaa5f5"><stop stop-color="#0f3054" offset="0"></stop><stop stop-color="#3b8dcb" offset="0.498"></stop><stop stop-color="#0f3054" offset="1"></stop></linearGradient><rect width="320.000047" height="360" fill="url(#9c1d80d4-8b99-4747-886f-92646faaa5f5)" mask="url(#11bf7268-4572-402c-bca9-5267ddaf4ff6)" data-fill-palette-color="primary"></rect><mask id="b00b9c02-1a53-4868-bdc9-d08de93aac5a"><g id="SvgjsG1189"><svg viewBox="0 0 320 360" height="360" width="320"><g><svg></svg></g><g><svg viewBox="0 0 320 360" height="360" width="320"><g></g><g transform="matrix(1,0,0,1,102.10059048927549,90)"><svg viewBox="0 0 115.79881902144902 180" height="180" width="115.79881902144902"><g><svg viewBox="0 0 115.79881902144902 180" height="180" width="115.79881902144902"><g><svg viewBox="0 0 192 298.4486395634015" height="180" width="115.79881902144902"><g transform="matrix(1,0,0,1,0,116.0987871088237)"><svg viewBox="0 0 192 182.3498524545778" height="182.3498524545778" width="192"><g id="SvgjsG1188"><svg viewBox="0 0 192 182.3498524545778" height="182.3498524545778" width="192" id="SvgjsSvg1187"><g><svg viewBox="0 0 192 146.83291770573564" height="146.83291770573564" width="192"><g transform="matrix(1,0,0,1,0,0)"><svg width="192" viewBox="-2.2 -36.2 60.150000000000006 46.00000000000001" height="146.83291770573564" data-palette-color="url(#9c1d80d4-8b99-4747-886f-92646faaa5f5)"></svg></g></svg></g><g transform="matrix(1,0,0,1,0,168.2593643890274)"><svg viewBox="0 0 192 14.09048806555041" height="14.09048806555041" width="192"><g transform="matrix(1,0,0,1,0,0)"><svg width="192" viewBox="2.55 -38.5 701.6700000000001 51.5" height="14.09048806555041" data-palette-color="url(#34c4a9eb-3b6c-4d83-bd92-7625273f9925)"><path d="M32.8-12.75L32.8-0.9Q28 0.3 21.8 0.3L21.8 0.3Q11.4 0.3 6.5-4.7L6.5-4.7Q4.7-6.5 3.63-9.38 2.55-12.25 2.55-16.4 2.55-20.55 4.17-24.08 5.8-27.6 8.6-29.65L8.6-29.65Q14.15-33.75 21.8-33.75L21.8-33.75 32.1-33.3 32.4-24.2 30.8-24.2 29.1-30.75Q26.4-31.9 22.7-31.9L22.7-31.9Q16.65-31.9 12.68-27.93 8.7-23.95 8.7-16.35 8.7-8.75 12.58-5.13 16.45-1.5 22.5-1.5L22.5-1.5Q25.45-1.5 27.9-2.1L27.9-2.1 27.9-12.75 23.75-13.2 23.75-14.4 35.8-14.4 35.8-13.2 32.8-12.75ZM51.1 0.55Q45.95 0.55 42.8-2.95 39.65-6.45 39.65-12.2 39.65-17.95 42.97-21.45 46.3-24.95 51.35-24.95 56.4-24.95 58.9-22.68 61.4-20.4 61.4-16.35L61.4-16.35Q61.4-15.15 61.2-13.95L61.2-13.95 45.05-13.95 45.05-12.2Q45.05-6.6 46.65-3.73 48.25-0.85 51.9-0.85L51.9-0.85Q57.05-0.85 59.85-5.35L59.85-5.35Q60.95-5 60.95-4.3L60.95-4.3Q60.95-3.05 58.65-1.4L58.65-1.4Q57.55-0.6 55.55-0.03 53.55 0.55 51.1 0.55L51.1 0.55ZM56.65-17.4L56.65-17.4Q56.65-19.7 55.7-21.35L55.7-21.35Q54.4-23.55 51.5-23.55L51.5-23.55Q46.1-23.55 45.2-15.75L45.2-15.75 56.55-15.75Q56.65-16.6 56.65-17.4ZM81-5.2L81-5.2Q81-5.05 80.95-4.85L80.95-4.85Q80.15-2.4 78.27-0.93 76.4 0.55 73.9 0.55 71.4 0.55 69.72-0.88 68.05-2.3 68.05-6.45L68.05-6.45Q68.05-7.6 68.3-23.1L68.3-23.1 64.85-23.1 64.85-24.4 68.35-24.4 68.4-31.75 73.3-31.75 73.15-24.4 80.3-24.4 80.3-23.1 73.15-23.1Q72.9-6.95 72.9-4.2L72.9-4.2Q72.9-0.85 75.1-0.85L75.1-0.85Q76.45-0.85 77.92-2.4 79.4-3.95 80-5.9L80-5.9Q81-5.9 81-5.2ZM104.94-32.58Q104.94-31.35 104.09-30.48 103.24-29.6 101.97-29.6 100.69-29.6 99.84-30.45 98.99-31.3 98.99-32.58 98.99-33.85 99.84-34.73 100.69-35.6 101.94-35.6 103.19-35.6 104.07-34.7 104.94-33.8 104.94-32.58ZM107.94 0L96.44 0 96.44-1.2 99.74-1.45 99.74-22.7 95.34-22.85 95.34-24 104.64-24.65 104.64-1.45 107.94-1.2 107.94 0ZM126.49-5.2L126.49-5.2Q126.49-5.05 126.44-4.85L126.44-4.85Q125.64-2.4 123.76-0.93 121.89 0.55 119.39 0.55 116.89 0.55 115.21-0.88 113.54-2.3 113.54-6.45L113.54-6.45Q113.54-7.6 113.79-23.1L113.79-23.1 110.34-23.1 110.34-24.4 113.84-24.4 113.89-31.75 118.79-31.75 118.64-24.4 125.79-24.4 125.79-23.1 118.64-23.1Q118.39-6.95 118.39-4.2L118.39-4.2Q118.39-0.85 120.59-0.85L120.59-0.85Q121.94-0.85 123.41-2.4 124.89-3.95 125.49-5.9L125.49-5.9Q126.49-5.9 126.49-5.2ZM161.18-7.65L161.18-7.65 161.18-21.4Q158.78-23.25 155.23-23.25L155.23-23.25Q150.78-23.25 149.13-19.6L149.13-19.6Q147.78-16.5 147.78-11.15L147.78-11.15Q147.78-0.8 153.38-0.8L153.38-0.8Q156.53-0.8 158.86-3.2 161.18-5.6 161.18-7.65ZM152.43 0.75L152.43 0.75Q148.13 0.75 145.18-2.33 142.23-5.4 142.23-11.53 142.23-17.65 145.81-21.2 149.38-24.75 155.33-24.75L155.33-24.75Q158.43-24.75 161.18-23.3L161.18-23.3 161.18-35.9 156.78-36.1 156.73-37.25 165.98-38.3 165.98-1.15 170.23-0.95 170.28 0.2 161.43 0.8 161.53-4 161.23-4Q160.03-1.75 157.58-0.5 155.13 0.75 152.43 0.75ZM197.78-12.2Q197.78-6.65 194.43-3.05 191.08 0.55 185.31 0.55 179.53 0.55 176.18-3.05 172.83-6.65 172.83-12.2 172.83-17.75 176.18-21.35 179.53-24.95 185.31-24.95 191.08-24.95 194.43-21.35 197.78-17.75 197.78-12.2ZM178.28-12.2L178.28-12.2Q178.28-0.65 185.31-0.65 192.33-0.65 192.33-12.2L192.33-12.2Q192.33-17.8 190.73-20.75 189.13-23.7 185.33-23.7 181.53-23.7 179.91-20.75 178.28-17.8 178.28-12.2ZM209.78-19.15L210.23-19.1Q212.48-24.9 219.28-24.9L219.28-24.9Q222.68-24.9 224.78-22.88 226.88-20.85 226.88-17.1L226.88-17.1Q226.88-10.65 226.48-1.45L226.48-1.45 229.93-1.2 229.93 0 218.88 0 218.88-1.2 221.58-1.4Q221.98-12.7 221.98-14.35 221.98-16 221.93-16.88 221.88-17.75 221.65-19.03 221.43-20.3 220.98-21.05L220.98-21.05Q219.88-22.9 217.53-22.9L217.53-22.9Q214.33-22.9 212.28-20.25 210.23-17.6 210.23-14.5L210.23-14.5 210.23-1.45 213.98-1.2 213.98 0 202.03 0 202.03-1.2 205.33-1.45 205.33-22.6 201.08-22.8 201.08-23.95 210.03-24.55 209.78-19.15ZM244.83 0.55Q239.68 0.55 236.53-2.95 233.38-6.45 233.38-12.2 233.38-17.95 236.7-21.45 240.03-24.95 245.08-24.95 250.13-24.95 252.63-22.68 255.13-20.4 255.13-16.35L255.13-16.35Q255.13-15.15 254.93-13.95L254.93-13.95 238.78-13.95 238.78-12.2Q238.78-6.6 240.38-3.73 241.98-0.85 245.63-0.85L245.63-0.85Q250.78-0.85 253.58-5.35L253.58-5.35Q254.68-5 254.68-4.3L254.68-4.3Q254.68-3.05 252.38-1.4L252.38-1.4Q251.28-0.6 249.28-0.03 247.28 0.55 244.83 0.55L244.83 0.55ZM250.38-17.4L250.38-17.4Q250.38-19.7 249.43-21.35L249.43-21.35Q248.13-23.55 245.23-23.55L245.23-23.55Q239.83-23.55 238.93-15.75L238.93-15.75 250.28-15.75Q250.38-16.6 250.38-17.4ZM287.62-25L287.62-25Q288.92-25 289.67-24.38 290.42-23.75 290.42-22.65L290.42-22.65Q290.42-20.75 288.97-20.15L288.97-20.15Q288.17-20.8 286.07-20.8 283.97-20.8 282.05-19.43 280.12-18.05 280.12-16.3L280.12-16.3 280.12-1.45 284.62-1.2 284.62 0 271.92 0 271.92-1.2 275.22-1.4 275.22-22.75 271.27-22.95 271.27-24.1 280.12-24.65 279.82-18.5 280.02-18.5Q280.87-21.2 283.15-23.1 285.42-25 287.62-25ZM301.52-32.58Q301.52-31.35 300.67-30.48 299.82-29.6 298.54-29.6 297.27-29.6 296.42-30.45 295.57-31.3 295.57-32.58 295.57-33.85 296.42-34.73 297.27-35.6 298.52-35.6 299.77-35.6 300.64-34.7 301.52-33.8 301.52-32.58ZM304.52 0L293.02 0 293.02-1.2 296.32-1.45 296.32-22.7 291.92-22.85 291.92-24 301.22-24.65 301.22-1.45 304.52-1.2 304.52 0ZM314.02-5L314.02-5Q314.02-3.85 315.64-3.48 317.27-3.1 322.42-2.65 327.57-2.2 329.82-0.83 332.07 0.55 332.07 3.6L332.07 3.6Q332.07 7.5 328.39 10.25 324.72 13 318.87 13 313.02 13 310.27 11.13 307.52 9.25 307.52 6.15L307.52 6.15Q307.52 4.1 308.87 2.27 310.22 0.45 312.82-0.3L312.82-0.3Q309.77-1.4 309.77-3.95L309.77-3.95Q309.77-5.45 311.32-6.48 312.87-7.5 314.82-7.75L314.82-7.75Q311.67-8.65 309.97-10.88 308.27-13.1 308.27-16.1L308.27-16.1Q308.27-19.95 311.14-22.45 314.02-24.95 318.92-24.95L318.92-24.95Q320.32-24.95 321.97-24.6L321.97-24.6Q323.42-24.95 324.27-26.1L324.27-26.1Q325.17-27.35 325.17-28.75 325.17-30.15 325.02-31.15L325.02-31.15Q325.72-31.45 326.42-31.45 327.12-31.45 327.82-31.1L327.82-31.1Q329.17-30.4 329.17-28.68 329.17-26.95 327.52-25.65 325.87-24.35 323.57-24.15L323.57-24.15Q326.27-23.15 327.72-21.03 329.17-18.9 329.17-16.1L329.17-16.1Q329.17-11.9 325.94-9.6 322.72-7.3 318.02-7.3L318.02-7.3Q316.27-7.25 315.14-6.53 314.02-5.8 314.02-5ZM311.37 5.6L311.37 5.6Q311.37 8.25 313.54 9.83 315.72 11.4 319.19 11.4 322.67 11.4 325.42 9.65 328.17 7.9 328.22 5.25L328.22 5.25Q328.22 3.55 327.12 2.7L327.12 2.7Q326.17 1.95 324.47 1.7 322.77 1.45 319.74 1.13 316.72 0.8 314.57 0.35L314.57 0.35Q313.22 1.05 312.29 2.53 311.37 4 311.37 5.6ZM318.57-8.35L318.57-8.35Q321.37-8.35 322.72-10.5 324.07-12.65 324.07-16.1L324.07-16.1Q324.07-23.85 318.92-23.85L318.92-23.85Q316.12-23.85 314.74-21.78 313.37-19.7 313.37-16.1L313.37-16.1Q313.37-8.35 318.57-8.35ZM349.76-24.75L349.76-24.75Q357.76-24.75 357.76-17.05L357.76-17.05Q357.76-11.5 357.41-1.45L357.41-1.45 360.96-1.2 360.96 0 349.81 0 349.81-1.2 352.51-1.4Q352.86-14.6 352.86-17.43 352.86-20.25 351.81-21.65 350.76-23.05 348.19-23.05 345.61-23.05 343.36-20.6 341.11-18.15 341.11-16.1L341.11-16.1 341.11-1.45 344.41-1.2 344.41 0 332.91 0 332.91-1.2 336.21-1.45 336.21-35.9 331.81-36.1 331.76-37.25 341.11-38.3Q340.81-21.15 340.76-20L340.76-20 341.16-20Q342.51-22.3 344.79-23.53 347.06-24.75 349.76-24.75ZM379.31-5.2L379.31-5.2Q379.31-5.05 379.26-4.85L379.26-4.85Q378.46-2.4 376.59-0.93 374.71 0.55 372.21 0.55 369.71 0.55 368.04-0.88 366.36-2.3 366.36-6.45L366.36-6.45Q366.36-7.6 366.61-23.1L366.61-23.1 363.16-23.1 363.16-24.4 366.66-24.4 366.71-31.75 371.61-31.75 371.46-24.4 378.61-24.4 378.61-23.1 371.46-23.1Q371.21-6.95 371.21-4.2L371.21-4.2Q371.21-0.85 373.41-0.85L373.41-0.85Q374.76-0.85 376.24-2.4 377.71-3.95 378.31-5.9L378.31-5.9Q379.31-5.9 379.31-5.2ZM410.11-5.2L410.11-5.2Q410.11-5.05 410.06-4.85L410.06-4.85Q409.26-2.4 407.38-0.93 405.51 0.55 403.01 0.55 400.51 0.55 398.83-0.88 397.16-2.3 397.16-6.45L397.16-6.45Q397.16-7.6 397.41-23.1L397.41-23.1 393.96-23.1 393.96-24.4 397.46-24.4 397.51-31.75 402.41-31.75 402.26-24.4 409.41-24.4 409.41-23.1 402.26-23.1Q402.01-6.95 402.01-4.2L402.01-4.2Q402.01-0.85 404.21-0.85L404.21-0.85Q405.56-0.85 407.03-2.4 408.51-3.95 409.11-5.9L409.11-5.9Q410.11-5.9 410.11-5.2ZM428.95-24.75L428.95-24.75Q436.95-24.75 436.95-17.05L436.95-17.05Q436.95-11.5 436.6-1.45L436.6-1.45 440.15-1.2 440.15 0 429 0 429-1.2 431.7-1.4Q432.05-14.6 432.05-17.43 432.05-20.25 431-21.65 429.95-23.05 427.38-23.05 424.8-23.05 422.55-20.6 420.3-18.15 420.3-16.1L420.3-16.1 420.3-1.45 423.6-1.2 423.6 0 412.1 0 412.1-1.2 415.4-1.45 415.4-35.9 411-36.1 410.95-37.25 420.3-38.3Q420-21.15 419.95-20L419.95-20 420.35-20Q421.7-22.3 423.98-23.53 426.25-24.75 428.95-24.75ZM454.9 0.55Q449.75 0.55 446.6-2.95 443.45-6.45 443.45-12.2 443.45-17.95 446.78-21.45 450.1-24.95 455.15-24.95 460.2-24.95 462.7-22.68 465.2-20.4 465.2-16.35L465.2-16.35Q465.2-15.15 465-13.95L465-13.95 448.85-13.95 448.85-12.2Q448.85-6.6 450.45-3.73 452.05-0.85 455.7-0.85L455.7-0.85Q460.85-0.85 463.65-5.35L463.65-5.35Q464.75-5 464.75-4.3L464.75-4.3Q464.75-3.05 462.45-1.4L462.45-1.4Q461.35-0.6 459.35-0.03 457.35 0.55 454.9 0.55L454.9 0.55ZM460.45-17.4L460.45-17.4Q460.45-19.7 459.5-21.35L459.5-21.35Q458.2-23.55 455.3-23.55L455.3-23.55Q449.9-23.55 449-15.75L449-15.75 460.35-15.75Q460.45-16.6 460.45-17.4ZM485.15-1.4L485.15-23.1 481.65-23.1 481.65-24.4 485.15-24.4 485.15-25.15Q485.15-31.8 487.95-35.15 490.75-38.5 495.95-38.5L495.95-38.5Q499.05-38.5 501.12-37.33 503.2-36.15 503.2-34.18 503.2-32.2 501.85-31.3L501.85-31.3Q501.05-30.75 500.27-30.75 499.5-30.75 498.8-31.05L498.8-31.05Q499.1-32.45 499.1-33.75 499.1-35.05 498.2-36.05 497.3-37.05 495.7-37.05 494.1-37.05 492.97-36.18 491.85-35.3 491.3-34.13 490.75-32.95 490.45-31L490.45-31Q490.05-28.4 490.05-24.4L490.05-24.4 497.6-24.4 497.6-23.1 490.05-23.1 490.05-1.45 495.65-1.2 495.7 0 481.8 0 481.75-1.2 485.15-1.4ZM510.34-32.58Q510.34-31.35 509.49-30.48 508.64-29.6 507.37-29.6 506.09-29.6 505.24-30.45 504.39-31.3 504.39-32.58 504.39-33.85 505.24-34.73 506.09-35.6 507.34-35.6 508.59-35.6 509.47-34.7 510.34-33.8 510.34-32.58ZM513.34 0L501.84 0 501.84-1.2 505.14-1.45 505.14-22.7 500.74-22.85 500.74-24 510.04-24.65 510.04-1.45 513.34-1.2 513.34 0ZM532.09-25L532.09-25Q533.39-25 534.14-24.38 534.89-23.75 534.89-22.65L534.89-22.65Q534.89-20.75 533.44-20.15L533.44-20.15Q532.64-20.8 530.54-20.8 528.44-20.8 526.52-19.43 524.59-18.05 524.59-16.3L524.59-16.3 524.59-1.45 529.09-1.2 529.09 0 516.39 0 516.39-1.2 519.69-1.4 519.69-22.75 515.74-22.95 515.74-24.1 524.59-24.65 524.29-18.5 524.49-18.5Q525.34-21.2 527.62-23.1 529.89-25 532.09-25ZM546.79-0.7L546.79-0.7Q548.79-0.7 550.26-1.8 551.74-2.9 551.74-5.5L551.74-5.5Q551.74-7.25 550.16-8.4 548.59-9.55 546.24-10.48 543.89-11.4 543.06-11.78 542.24-12.15 540.89-13L540.89-13Q538.44-14.65 538.44-17.75 538.44-20.85 540.89-22.9 543.34-24.95 548.04-24.95L548.04-24.95Q551.04-24.95 553.16-23.63 555.29-22.3 555.29-20.45 555.29-18.6 553.89-17.9L553.89-17.9Q553.14-17.55 552.41-17.55 551.69-17.55 550.99-17.85L550.99-17.85Q551.19-18.75 551.19-19.8 551.19-20.85 550.69-21.9L550.69-21.9Q549.84-23.7 547.44-23.7 545.04-23.7 543.79-22.4 542.54-21.1 542.54-19L542.54-19Q542.54-16.85 544.34-15.8L544.34-15.8Q545.69-14.95 547.69-14.25 549.69-13.55 550.41-13.28 551.14-13 552.34-12.35 553.54-11.7 554.14-11L554.14-11Q555.69-9.3 555.69-6.4 555.69-3.5 553.09-1.48 550.49 0.55 546.74 0.55 542.99 0.55 540.16-0.6 537.34-1.75 537.34-3.95L537.34-3.95Q537.34-6 540.39-6.65L540.39-6.65Q541.29-0.7 546.79-0.7ZM575.34-5.2L575.34-5.2Q575.34-5.05 575.28-4.85L575.28-4.85Q574.49-2.4 572.61-0.93 570.74 0.55 568.24 0.55 565.74 0.55 564.06-0.88 562.38-2.3 562.38-6.45L562.38-6.45Q562.38-7.6 562.63-23.1L562.63-23.1 559.19-23.1 559.19-24.4 562.69-24.4 562.74-31.75 567.63-31.75 567.49-24.4 574.63-24.4 574.63-23.1 567.49-23.1Q567.24-6.95 567.24-4.2L567.24-4.2Q567.24-0.85 569.44-0.85L569.44-0.85Q570.78-0.85 572.26-2.4 573.74-3.95 574.34-5.9L574.34-5.9Q575.34-5.9 575.34-5.2ZM606.13-5.2L606.13-5.2Q606.13-5.05 606.08-4.85L606.08-4.85Q605.28-2.4 603.4-0.93 601.53 0.55 599.03 0.55 596.53 0.55 594.86-0.88 593.18-2.3 593.18-6.45L593.18-6.45Q593.18-7.6 593.43-23.1L593.43-23.1 589.98-23.1 589.98-24.4 593.48-24.4 593.53-31.75 598.43-31.75 598.28-24.4 605.43-24.4 605.43-23.1 598.28-23.1Q598.03-6.95 598.03-4.2L598.03-4.2Q598.03-0.85 600.23-0.85L600.23-0.85Q601.58-0.85 603.05-2.4 604.53-3.95 605.13-5.9L605.13-5.9Q606.13-5.9 606.13-5.2ZM617.38-32.58Q617.38-31.35 616.53-30.48 615.68-29.6 614.4-29.6 613.13-29.6 612.28-30.45 611.43-31.3 611.43-32.58 611.43-33.85 612.28-34.73 613.13-35.6 614.38-35.6 615.63-35.6 616.5-34.7 617.38-33.8 617.38-32.58ZM620.38 0L608.88 0 608.88-1.2 612.18-1.45 612.18-22.7 607.78-22.85 607.78-24 617.08-24.65 617.08-1.45 620.38-1.2 620.38 0ZM656.82-24.75L656.82-24.75Q664.82-24.75 664.82-17.05L664.82-17.05Q664.82-11.5 664.47-1.45L664.47-1.45 668.02-1.2 668.02 0 656.87 0 656.87-1.2 659.57-1.4Q659.92-14.6 659.92-17.43 659.92-20.25 658.87-21.65 657.82-23.05 655.47-23.05 653.12-23.05 651.12-21.08 649.12-19.1 648.42-16.85L648.42-16.85Q648.42-11.45 648.07-1.45L648.07-1.45 651.62-1.2 651.62 0 640.47 0 640.47-1.2 643.17-1.4Q643.52-14.6 643.52-17.43 643.52-20.25 642.47-21.65 641.42-23.05 638.85-23.05 636.27-23.05 634.02-20.33 631.77-17.6 631.77-15.5L631.77-15.5 631.77-1.45 635.52-1.2 635.52 0 623.62 0 623.62-1.2 626.87-1.4 626.87-22.6 622.62-22.8 622.62-23.95 631.57-24.55 631.32-19.4 631.82-19.4Q633.17-22.05 635.45-23.4 637.72-24.75 640.42-24.75L640.42-24.75Q647.17-24.75 648.22-19.35L648.22-19.35 648.22-19.4Q649.57-22.05 651.85-23.4 654.12-24.75 656.82-24.75ZM682.87 0.55Q677.72 0.55 674.57-2.95 671.42-6.45 671.42-12.2 671.42-17.95 674.75-21.45 678.07-24.95 683.12-24.95 688.17-24.95 690.67-22.68 693.17-20.4 693.17-16.35L693.17-16.35Q693.17-15.15 692.97-13.95L692.97-13.95 676.82-13.95 676.82-12.2Q676.82-6.6 678.42-3.73 680.02-0.85 683.67-0.85L683.67-0.85Q688.82-0.85 691.62-5.35L691.62-5.35Q692.72-5 692.72-4.3L692.72-4.3Q692.72-3.05 690.42-1.4L690.42-1.4Q689.32-0.6 687.32-0.03 685.32 0.55 682.87 0.55L682.87 0.55ZM688.42-17.4L688.42-17.4Q688.42-19.7 687.47-21.35L687.47-21.35Q686.17-23.55 683.27-23.55L683.27-23.55Q677.87-23.55 676.97-15.75L676.97-15.75 688.32-15.75Q688.42-16.6 688.42-17.4ZM704.22-2.38Q704.22-1.15 703.37-0.28 702.52 0.6 701.24 0.6 699.97 0.6 699.12-0.25 698.27-1.1 698.27-2.38 698.27-3.65 699.12-4.53 699.97-5.4 701.22-5.4 702.47-5.4 703.34-4.5 704.22-3.6 704.22-2.38Z" opacity="1" transform="matrix(1,0,0,1,0,0)" fill="white" class="slogan-text-1" id="SvgjsPath1186"></path></svg></g></svg></g></svg></g></svg></g><g transform="matrix(1,0,0,1,36.67199999999999,0)"><svg viewBox="0 0 118.65600000000002 94.67234042553193" height="94.67234042553193" width="118.65600000000002"><g><svg xmlns="http://www.w3.org/2000/svg" xmlns:xlink="http://www.w3.org/1999/xlink" version="1.1" x="0" y="0" viewBox="1 13 94 75" enable-background="new 0 0 96 96" xml:space="preserve" height="94.67234042553193" width="118.65600000000002" class="icon-icon-0" data-fill-palette-color="accent" id="SvgjsSvg1185"></svg></g></svg></g><g></g></svg></g></svg></g></svg></g></svg></g><defs><mask></mask></defs><mask><g id="SvgjsG1184"><svg viewBox="0 0 320 360" height="360" width="320"><g><svg></svg></g><g><svg viewBox="0 0 320 360" height="360" width="320"><g></g><g transform="matrix(1,0,0,1,102.10059048927549,90)"><svg viewBox="0 0 115.79881902144902 180" height="180" width="115.79881902144902"><g><svg viewBox="0 0 115.79881902144902 180" height="180" width="115.79881902144902"><g><svg viewBox="0 0 192 298.4486395634015" height="180" width="115.79881902144902"><g transform="matrix(1,0,0,1,0,116.0987871088237)"><svg viewBox="0 0 192 182.3498524545778" height="182.3498524545778" width="192"><g id="SvgjsG1183"><svg viewBox="0 0 192 182.3498524545778" height="182.3498524545778" width="192" id="SvgjsSvg1182"><g><svg viewBox="0 0 192 146.83291770573564" height="146.83291770573564" width="192"><g transform="matrix(1,0,0,1,0,0)"><svg width="192" viewBox="-2.2 -36.2 60.150000000000006 46.00000000000001" height="146.83291770573564" data-palette-color="url(#9c1d80d4-8b99-4747-886f-92646faaa5f5)"></svg></g></svg></g><g transform="matrix(1,0,0,1,0,168.2593643890274)"><svg viewBox="0 0 192 14.09048806555041" height="14.09048806555041" width="192"><g transform="matrix(1,0,0,1,0,0)"><svg width="192" viewBox="2.55 -38.5 701.6700000000001 51.5" height="14.09048806555041" data-palette-color="url(#34c4a9eb-3b6c-4d83-bd92-7625273f9925)"></svg></g></svg></g></svg></g></svg></g><g transform="matrix(1,0,0,1,36.67199999999999,0)"><svg viewBox="0 0 118.65600000000002 94.67234042553193" height="94.67234042553193" width="118.65600000000002"><g><svg xmlns="http://www.w3.org/2000/svg" xmlns:xlink="http://www.w3.org/1999/xlink" version="1.1" x="0" y="0" viewBox="1 13 94 75" enable-background="new 0 0 96 96" xml:space="preserve" height="94.67234042553193" width="118.65600000000002" class="icon-icon-0" data-fill-palette-color="accent" id="SvgjsSvg1180"></svg></g></svg></g><g></g></svg></g></svg></g></svg></g></svg></g><defs><mask></mask></defs></svg></g></mask></svg></g></mask><linearGradient x1="0.054" x2="0.941" y1="0.5" y2="0.5" id="34c4a9eb-3b6c-4d83-bd92-7625273f9925"><stop stop-color="#0f3054" offset="0"></stop><stop stop-color="#3b8dcb" offset="0.498"></stop><stop stop-color="#0f3054" offset="1"></stop></linearGradient><rect width="320.000094" height="360" fill="url(#34c4a9eb-3b6c-4d83-bd92-7625273f9925)" mask="url(#b00b9c02-1a53-4868-bdc9-d08de93aac5a)" data-fill-palette-color="secondary"></rect><mask id="ab1a7aed-9499-4612-a85c-b887a233d753"><g id="SvgjsG1207"><svg viewBox="0 0 320 360" height="360" width="320"><g><svg></svg></g><g><svg viewBox="0 0 320 360" height="360" width="320"><g></g><g transform="matrix(1,0,0,1,102.10059048927549,90)"><svg viewBox="0 0 115.79881902144902 180" height="180" width="115.79881902144902"><g><svg viewBox="0 0 115.79881902144902 180" height="180" width="115.79881902144902"><g><svg viewBox="0 0 192 298.4486395634015" height="180" width="115.79881902144902"><g transform="matrix(1,0,0,1,0,116.0987871088237)"><svg viewBox="0 0 192 182.3498524545778" height="182.3498524545778" width="192"><g id="SvgjsG1206"><svg viewBox="0 0 192 182.3498524545778" height="182.3498524545778" width="192" id="SvgjsSvg1205"><g><svg viewBox="0 0 192 146.83291770573564" height="146.83291770573564" width="192"><g transform="matrix(1,0,0,1,0,0)"><svg width="192" viewBox="-2.2 -36.2 60.150000000000006 46.00000000000001" height="146.83291770573564" data-palette-color="url(#9c1d80d4-8b99-4747-886f-92646faaa5f5)"></svg></g></svg></g><g transform="matrix(1,0,0,1,0,168.2593643890274)"><svg viewBox="0 0 192 14.09048806555041" height="14.09048806555041" width="192"><g transform="matrix(1,0,0,1,0,0)"><svg width="192" viewBox="2.55 -38.5 701.6700000000001 51.5" height="14.09048806555041" data-palette-color="url(#34c4a9eb-3b6c-4d83-bd92-7625273f9925)"></svg></g></svg></g></svg></g></svg></g><g transform="matrix(1,0,0,1,36.67199999999999,0)"><svg viewBox="0 0 118.65600000000002 94.67234042553193" height="94.67234042553193" width="118.65600000000002"><g><svg xmlns="http://www.w3.org/2000/svg" xmlns:xlink="http://www.w3.org/1999/xlink" version="1.1" x="0" y="0" viewBox="1 13 94 75" enable-background="new 0 0 96 96" xml:space="preserve" height="94.67234042553193" width="118.65600000000002" class="icon-icon-0" data-fill-palette-color="accent" id="SvgjsSvg1204"><g fill="white"><path fill="white" d="M90 82h-4v-2h4c1.654 0 3-1.346 3-3V18c0-1.654-1.346-3-3-3H6c-1.654 0-3 1.346-3 3v59c0 1.654 1.346 3 3 3h46v2H6c-2.757 0-5-2.243-5-5V18c0-2.757 2.243-5 5-5h84c2.757 0 5 2.243 5 5v59C95 79.757 92.757 82 90 82z"></path></g><g fill="white"><rect x="2" y="26" fill="white" width="91" height="2"></rect></g><g fill="white"><path fill="white" d="M10.5 22C9.673 22 9 21.327 9 20.5S9.673 19 10.5 19s1.5 0.673 1.5 1.5S11.327 22 10.5 22zM10.5 20c-0.276 0-0.5 0.224-0.5 0.5s0.224 0.5 0.5 0.5 0.5-0.224 0.5-0.5S10.776 20 10.5 20z"></path></g><g fill="white"><path fill="white" d="M17.5 22c-0.827 0-1.5-0.673-1.5-1.5s0.673-1.5 1.5-1.5 1.5 0.673 1.5 1.5S18.327 22 17.5 22zM17.5 20c-0.276 0-0.5 0.224-0.5 0.5s0.224 0.5 0.5 0.5 0.5-0.224 0.5-0.5S17.776 20 17.5 20z"></path></g><g fill="white"><path fill="white" d="M24.5 22c-0.827 0-1.5-0.673-1.5-1.5s0.673-1.5 1.5-1.5 1.5 0.673 1.5 1.5S25.327 22 24.5 22zM24.5 20c-0.276 0-0.5 0.224-0.5 0.5s0.224 0.5 0.5 0.5 0.5-0.224 0.5-0.5S24.776 20 24.5 20z"></path></g><g fill="white"><g fill="white"><path fill="white" d="M77 88H61c-2.757 0-5-2.243-5-5V48c0-2.757 2.243-5 5-5h16c2.757 0 5 2.243 5 5v35C82 85.757 79.757 88 77 88zM61 45c-1.654 0-3 1.346-3 3v35c0 1.654 1.346 3 3 3h16c1.654 0 3-1.346 3-3V48c0-1.654-1.346-3-3-3H61z"></path></g><g fill="white"><path fill="white" d="M81 53H57c-0.552 0-1-0.448-1-1s0.448-1 1-1h24c0.552 0 1 0.448 1 1S81.552 53 81 53z"></path></g><g fill="white"><path fill="white" d="M81 80H57c-0.552 0-1-0.448-1-1s0.448-1 1-1h24c0.552 0 1 0.448 1 1S81.552 80 81 80z"></path></g></g></svg></g></svg></g><g></g></svg></g></svg></g></svg></g></svg></g><defs><mask></mask></defs><mask><g id="SvgjsG1203"><svg viewBox="0 0 320 360" height="360" width="320"><g><svg></svg></g><g><svg viewBox="0 0 320 360" height="360" width="320"><g></g><g transform="matrix(1,0,0,1,102.10059048927549,90)"><svg viewBox="0 0 115.79881902144902 180" height="180" width="115.79881902144902"><g><svg viewBox="0 0 115.79881902144902 180" height="180" width="115.79881902144902"><g><svg viewBox="0 0 192 298.4486395634015" height="180" width="115.79881902144902"><g transform="matrix(1,0,0,1,0,116.0987871088237)"><svg viewBox="0 0 192 182.3498524545778" height="182.3498524545778" width="192"><g id="SvgjsG1202"><svg viewBox="0 0 192 182.3498524545778" height="182.3498524545778" width="192" id="SvgjsSvg1201"><g><svg viewBox="0 0 192 146.83291770573564" height="146.83291770573564" width="192"><g transform="matrix(1,0,0,1,0,0)"><svg width="192" viewBox="-2.2 -36.2 60.150000000000006 46.00000000000001" height="146.83291770573564" data-palette-color="url(#9c1d80d4-8b99-4747-886f-92646faaa5f5)"></svg></g></svg></g><g transform="matrix(1,0,0,1,0,168.2593643890274)"><svg viewBox="0 0 192 14.09048806555041" height="14.09048806555041" width="192"><g transform="matrix(1,0,0,1,0,0)"><svg width="192" viewBox="2.55 -38.5 701.6700000000001 51.5" height="14.09048806555041" data-palette-color="url(#34c4a9eb-3b6c-4d83-bd92-7625273f9925)"></svg></g></svg></g></svg></g></svg></g><g transform="matrix(1,0,0,1,36.67199999999999,0)"><svg viewBox="0 0 118.65600000000002 94.67234042553193" height="94.67234042553193" width="118.65600000000002"><g><svg xmlns="http://www.w3.org/2000/svg" xmlns:xlink="http://www.w3.org/1999/xlink" version="1.1" x="0" y="0" viewBox="1 13 94 75" enable-background="new 0 0 96 96" xml:space="preserve" height="94.67234042553193" width="118.65600000000002" class="icon-icon-0" data-fill-palette-color="accent" id="SvgjsSvg1199"></svg></g></svg></g><g></g></svg></g></svg></g></svg></g></svg></g><defs><mask></mask></defs></svg></g></mask><mask><g id="SvgjsG1198"><svg viewBox="0 0 320 360" height="360" width="320"><g><svg></svg></g><g><svg viewBox="0 0 320 360" height="360" width="320"><g></g><g transform="matrix(1,0,0,1,102.10059048927549,90)"><svg viewBox="0 0 115.79881902144902 180" height="180" width="115.79881902144902"><g><svg viewBox="0 0 115.79881902144902 180" height="180" width="115.79881902144902"><g><svg viewBox="0 0 192 298.4486395634015" height="180" width="115.79881902144902"><g transform="matrix(1,0,0,1,0,116.0987871088237)"><svg viewBox="0 0 192 182.3498524545778" height="182.3498524545778" width="192"><g id="SvgjsG1197"><svg viewBox="0 0 192 182.3498524545778" height="182.3498524545778" width="192" id="SvgjsSvg1196"><g><svg viewBox="0 0 192 146.83291770573564" height="146.83291770573564" width="192"><g transform="matrix(1,0,0,1,0,0)"><svg width="192" viewBox="-2.2 -36.2 60.150000000000006 46.00000000000001" height="146.83291770573564" data-palette-color="url(#9c1d80d4-8b99-4747-886f-92646faaa5f5)"></svg></g></svg></g><g transform="matrix(1,0,0,1,0,168.2593643890274)"><svg viewBox="0 0 192 14.09048806555041" height="14.09048806555041" width="192"><g transform="matrix(1,0,0,1,0,0)"><svg width="192" viewBox="2.55 -38.5 701.6700000000001 51.5" height="14.09048806555041" data-palette-color="url(#34c4a9eb-3b6c-4d83-bd92-7625273f9925)"></svg></g></svg></g></svg></g></svg></g><g transform="matrix(1,0,0,1,36.67199999999999,0)"><svg viewBox="0 0 118.65600000000002 94.67234042553193" height="94.67234042553193" width="118.65600000000002"><g><svg xmlns="http://www.w3.org/2000/svg" xmlns:xlink="http://www.w3.org/1999/xlink" version="1.1" x="0" y="0" viewBox="1 13 94 75" enable-background="new 0 0 96 96" xml:space="preserve" height="94.67234042553193" width="118.65600000000002" class="icon-icon-0" data-fill-palette-color="accent" id="SvgjsSvg1194"></svg></g></svg></g><g></g></svg></g></svg></g></svg></g></svg></g><defs><mask></mask></defs><mask><g id="SvgjsG1193"><svg viewBox="0 0 320 360" height="360" width="320"><g><svg></svg></g><g><svg viewBox="0 0 320 360" height="360" width="320"><g></g><g transform="matrix(1,0,0,1,102.10059048927549,90)"><svg viewBox="0 0 115.79881902144902 180" height="180" width="115.79881902144902"><g><svg viewBox="0 0 115.79881902144902 180" height="180" width="115.79881902144902"><g><svg viewBox="0 0 192 298.4486395634015" height="180" width="115.79881902144902"><g transform="matrix(1,0,0,1,0,116.0987871088237)"><svg viewBox="0 0 192 182.3498524545778" height="182.3498524545778" width="192"><g id="SvgjsG1192"><svg viewBox="0 0 192 182.3498524545778" height="182.3498524545778" width="192" id="SvgjsSvg1191"><g><svg viewBox="0 0 192 146.83291770573564" height="146.83291770573564" width="192"><g transform="matrix(1,0,0,1,0,0)"><svg width="192" viewBox="-2.2 -36.2 60.150000000000006 46.00000000000001" height="146.83291770573564" data-palette-color="url(#9c1d80d4-8b99-4747-886f-92646faaa5f5)"></svg></g></svg></g><g transform="matrix(1,0,0,1,0,168.2593643890274)"><svg viewBox="0 0 192 14.09048806555041" height="14.09048806555041" width="192"><g transform="matrix(1,0,0,1,0,0)"><svg width="192" viewBox="2.55 -38.5 701.6700000000001 51.5" height="14.09048806555041" data-palette-color="url(#34c4a9eb-3b6c-4d83-bd92-7625273f9925)"></svg></g></svg></g></svg></g></svg></g><g transform="matrix(1,0,0,1,36.67199999999999,0)"><svg viewBox="0 0 118.65600000000002 94.67234042553193" height="94.67234042553193" width="118.65600000000002"><g><svg xmlns="http://www.w3.org/2000/svg" xmlns:xlink="http://www.w3.org/1999/xlink" version="1.1" x="0" y="0" viewBox="1 13 94 75" enable-background="new 0 0 96 96" xml:space="preserve" height="94.67234042553193" width="118.65600000000002" class="icon-icon-0" data-fill-palette-color="accent" id="SvgjsSvg1190"></svg></g></svg></g><g></g></svg></g></svg></g></svg></g></svg></g><defs><mask></mask></defs></svg></g></mask></svg></g></mask></svg></g></mask><linearGradient x1="0.054" x2="0.941" y1="0.5" y2="0.5" id="326376e3-ea6d-426b-935c-05471ace0bbb"><stop stop-color="#0f3054" offset="0"></stop><stop stop-color="#3b8dcb" offset="0.498"></stop><stop stop-color="#0f3054" offset="1"></stop></linearGradient><rect width="320.000141" height="360" fill="url(#326376e3-ea6d-426b-935c-05471ace0bbb)" mask="url(#ab1a7aed-9499-4612-a85c-b887a233d753)" data-fill-palette-color="accent"></rect><mask id="ce1890ae-0548-4cd5-9487-f660b4af807f"><g id="SvgjsG1241"><svg viewBox="0 0 320 360" height="360" width="320"><g><svg></svg></g><g><svg viewBox="0 0 320 360" height="360" width="320"><g><path transform="translate(-74.99272,-51.79039) scale(4.65793,4.65793)" d="M20.6 59.9l0.8 1-0.4-1.3c-0.1-0.6-0.8 0.1-0.4 0.3M21.5 59.3c0.3 0.5 0.6 1 0.6 1.5 0 0.7 0.6 1 1.1 1.2-0.7-0.8-1.1-3-1.7-2.7M59.9 16.9c1.7 0 3.3-0.2 5.1 0.2 4.4 1.1 8.1 3.3 10.6 6.4l7 11.2c0.3 2.8 0.9 5.9 0.8 9.3 0.7 0 0.6-1 1.4-1.2-0.8 2-1.2 4.5-1.4 7.4-0.5-1.6 0-4 0.1-5.3-0.7 1.1-1.1 0.3-1.1-0.2 0.1-0.8-0.3-0.7-0.6-1-1.1-1-1.8-2.1-2.6-3.8 0.5-1.3 0.6-3.2-1-4.2-0.5-0.3-1.1-0.8-1.4-1.6-0.4-1.1-1.1-2.4-0.9-4.1 0.1-0.5-1.5 1.1-2.4 0.4-3.9-2.7-7.8-5.8-12.5-8.4-2.5 0-4.3-0.9-5.2-2-0.8-1-0.2-2.3 1-2.4 0.7 0 1.5-0.2 2.1 0.2 0.1-0.4 0.5-0.9 1-0.9M50 14.6l0.2 0.1c1 0.2 1.5 1.6 2.6 1.1 0 0.7 0.1 1.4-0.1 1.9-0.3 0.8-1.2 0.8-1.9 0.8-6.7-0.4-10.6 2.4-14.7 4.8-1.1 0.7-2.3 1.2-3.2 2.1-4.3 4-9 7.7-10.1 15.1l-0.9 8.2c-0.1 0.9-1.1 1.8-0.9 2.9l0.7 4.9c-0.7-0.7-1.1 0.2-0.9 0.6 0.1 0.3 0.5 1.3 1.1 0.4 0.8 1.5 1.6 4.4 2.7 5.7 3.4 4 7.8 7.6 11.4 11.2 0.9-0.2 1.6-0.2 1.8-0.8 0.3 0.6-0.3 1.2-0.8 1.3 1.6 1 3.4 1.9 5.8 2.1 3.1 0.2 6 0.7 8.7 1.4 1.4-0.4 2.8-0.6 4.3-0.7 0.5 0 0.8-0.8 1.4-1l0.1-1c0.6 0.9 0.5-0.3 0.1-0.9 0.7 0.6 0.9 1.1 1.2 1.5 0-0.3 0.8-1.4 0.8-0.1l0.2-1.3c0.3-0.2 0.4 1.1 0.7 0.2 0.3-0.9 0.9-0.2 1.5-0.5-0.2 0.4-0.1 1.2 0.6 0.7l0.8-0.7c0.5 1.2 1.3 0.7 1.7 0.5 4.4-2.8 8.8-6.1 13-9.4l-0.1 1.3 0.5-1.6c0.5 0.5 0.9 0.1 1.1-0.2 0.6-1 1.4-2 2.7-2.9-1.6 4.3-3.5 7.7-5.9 10.5l-1 1.2c0 0.7-0.2 1.6-1 1.7-0.4 0.1-1.2-0.2-1.8 0.4-0.3 0.4 0.7 1.2-0.1 0.6-0.7-0.5-1.4 0-2.2 0.2-0.6 0.2 0.4 0.8 0.6 1.2 0.2 0.4 0.4 0.8 0.3 1.3l-1.1-1.2c-1.3 0.7-2.1 2-3.2 3-0.5 0.4-0.3 1.1-0.3 1.7-0.7 0-1.5-0.2-1.9 0.2-0.3 0.4-0.2 1-0.2 1.6-1-0.1-1.1-1.6-2-1.3-0.9 0.2-1.9 0.3-2.7 0.8 0.6 1.2-1 0.5-0.8 0.7-1.5-0.9-2.8-1.6-4.4-1-3.4-1.1-7.6-0.6-10.7-0.2 0-0.5 0.1-1-0.1-1.1-0.2 0.5-0.8 0.3-0.7 0.3-1.9-1.3-3.8-2.1-5.8-3.2-1.8 0.2-3.5-0.7-4-1.2-1.4-1.3-3-0.6-4.3-0.9-2.8-0.7-3.8-3.6-4.1-5.6-0.2-1-1-1.4-1.3-1.3-1.3-4.2-3.3-8-4.9-11.9-0.4-1-0.3-2-0.3-3.1 0.5 0.2 1 0.1 0.9-0.6-0.5-3.3-1.7-5.8-3-8.2 0.7-3.4 0.8-7.4 2.4-10.4 1.4-2.7 4-4.1 5.8-6.4 0.6-0.8 0.6-1.9 1.2-2.6 2-2 4-4.1 6.2-5.9 1-0.8 2.2 0 3.7-0.3 0.5-1.8 2.5-3.4 4.4-2.9 0.8 0.2 2.4-1.9 2.9-2.1 0.8-0.3 0.4 0.8 0.4 1.5 1.9-1.5 4.5-2.3 6.9-3.2" fill="white" fill-rule="nonzero" stroke="none" stroke-width="1" stroke-linecap="butt" stroke-linejoin="miter" stroke-miterlimit="10" stroke-dasharray="" stroke-dashoffset="0" font-family="none" font-weight="none" font-size="none" text-anchor="none" style="mix-blend-mode: normal"></path></g><g transform="matrix(1,0,0,1,102.10059048927549,90)"><svg viewBox="0 0 115.79881902144902 180" height="180" width="115.79881902144902"><g><svg viewBox="0 0 115.79881902144902 180" height="180" width="115.79881902144902"><g><svg viewBox="0 0 192 298.4486395634015" height="180" width="115.79881902144902"><g transform="matrix(1,0,0,1,0,116.0987871088237)"><svg viewBox="0 0 192 182.3498524545778" height="182.3498524545778" width="192"><g id="SvgjsG1240"><svg viewBox="0 0 192 182.3498524545778" height="182.3498524545778" width="192" id="SvgjsSvg1239"><g><svg viewBox="0 0 192 146.83291770573564" height="146.83291770573564" width="192"><g transform="matrix(1,0,0,1,0,0)"><svg width="192" viewBox="-2.2 -36.2 60.150000000000006 46.00000000000001" height="146.83291770573564" data-palette-color="url(#9c1d80d4-8b99-4747-886f-92646faaa5f5)"></svg></g></svg></g><g transform="matrix(1,0,0,1,0,168.2593643890274)"><svg viewBox="0 0 192 14.09048806555041" height="14.09048806555041" width="192"><g transform="matrix(1,0,0,1,0,0)"><svg width="192" viewBox="2.55 -38.5 701.6700000000001 51.5" height="14.09048806555041" data-palette-color="url(#34c4a9eb-3b6c-4d83-bd92-7625273f9925)"></svg></g></svg></g></svg></g></svg></g><g transform="matrix(1,0,0,1,36.67199999999999,0)"><svg viewBox="0 0 118.65600000000002 94.67234042553193" height="94.67234042553193" width="118.65600000000002"><g><svg xmlns="http://www.w3.org/2000/svg" xmlns:xlink="http://www.w3.org/1999/xlink" version="1.1" x="0" y="0" viewBox="1 13 94 75" enable-background="new 0 0 96 96" xml:space="preserve" height="94.67234042553193" width="118.65600000000002" class="icon-icon-0" data-fill-palette-color="accent" id="SvgjsSvg1238"></svg></g></svg></g><g></g></svg></g></svg></g></svg></g></svg></g><defs><mask></mask></defs><mask><g id="SvgjsG1237"><svg viewBox="0 0 320 360" height="360" width="320"><g><svg></svg></g><g><svg viewBox="0 0 320 360" height="360" width="320"><g></g><g transform="matrix(1,0,0,1,102.10059048927549,90)"><svg viewBox="0 0 115.79881902144902 180" height="180" width="115.79881902144902"><g><svg viewBox="0 0 115.79881902144902 180" height="180" width="115.79881902144902"><g><svg viewBox="0 0 192 298.4486395634015" height="180" width="115.79881902144902"><g transform="matrix(1,0,0,1,0,116.0987871088237)"><svg viewBox="0 0 192 182.3498524545778" height="182.3498524545778" width="192"><g id="SvgjsG1236"><svg viewBox="0 0 192 182.3498524545778" height="182.3498524545778" width="192" id="SvgjsSvg1235"><g><svg viewBox="0 0 192 146.83291770573564" height="146.83291770573564" width="192"><g transform="matrix(1,0,0,1,0,0)"><svg width="192" viewBox="-2.2 -36.2 60.150000000000006 46.00000000000001" height="146.83291770573564" data-palette-color="url(#9c1d80d4-8b99-4747-886f-92646faaa5f5)"></svg></g></svg></g><g transform="matrix(1,0,0,1,0,168.2593643890274)"><svg viewBox="0 0 192 14.09048806555041" height="14.09048806555041" width="192"><g transform="matrix(1,0,0,1,0,0)"><svg width="192" viewBox="2.55 -38.5 701.6700000000001 51.5" height="14.09048806555041" data-palette-color="url(#34c4a9eb-3b6c-4d83-bd92-7625273f9925)"></svg></g></svg></g></svg></g></svg></g><g transform="matrix(1,0,0,1,36.67199999999999,0)"><svg viewBox="0 0 118.65600000000002 94.67234042553193" height="94.67234042553193" width="118.65600000000002"><g><svg xmlns="http://www.w3.org/2000/svg" xmlns:xlink="http://www.w3.org/1999/xlink" version="1.1" x="0" y="0" viewBox="1 13 94 75" enable-background="new 0 0 96 96" xml:space="preserve" height="94.67234042553193" width="118.65600000000002" class="icon-icon-0" data-fill-palette-color="accent" id="SvgjsSvg1233"></svg></g></svg></g><g></g></svg></g></svg></g></svg></g></svg></g><defs><mask></mask></defs></svg></g></mask><mask><g id="SvgjsG1232"><svg viewBox="0 0 320 360" height="360" width="320"><g><svg></svg></g><g><svg viewBox="0 0 320 360" height="360" width="320"><g></g><g transform="matrix(1,0,0,1,102.10059048927549,90)"><svg viewBox="0 0 115.79881902144902 180" height="180" width="115.79881902144902"><g><svg viewBox="0 0 115.79881902144902 180" height="180" width="115.79881902144902"><g><svg viewBox="0 0 192 298.4486395634015" height="180" width="115.79881902144902"><g transform="matrix(1,0,0,1,0,116.0987871088237)"><svg viewBox="0 0 192 182.3498524545778" height="182.3498524545778" width="192"><g id="SvgjsG1231"><svg viewBox="0 0 192 182.3498524545778" height="182.3498524545778" width="192" id="SvgjsSvg1230"><g><svg viewBox="0 0 192 146.83291770573564" height="146.83291770573564" width="192"><g transform="matrix(1,0,0,1,0,0)"><svg width="192" viewBox="-2.2 -36.2 60.150000000000006 46.00000000000001" height="146.83291770573564" data-palette-color="url(#9c1d80d4-8b99-4747-886f-92646faaa5f5)"></svg></g></svg></g><g transform="matrix(1,0,0,1,0,168.2593643890274)"><svg viewBox="0 0 192 14.09048806555041" height="14.09048806555041" width="192"><g transform="matrix(1,0,0,1,0,0)"><svg width="192" viewBox="2.55 -38.5 701.6700000000001 51.5" height="14.09048806555041" data-palette-color="url(#34c4a9eb-3b6c-4d83-bd92-7625273f9925)"></svg></g></svg></g></svg></g></svg></g><g transform="matrix(1,0,0,1,36.67199999999999,0)"><svg viewBox="0 0 118.65600000000002 94.67234042553193" height="94.67234042553193" width="118.65600000000002"><g><svg xmlns="http://www.w3.org/2000/svg" xmlns:xlink="http://www.w3.org/1999/xlink" version="1.1" x="0" y="0" viewBox="1 13 94 75" enable-background="new 0 0 96 96" xml:space="preserve" height="94.67234042553193" width="118.65600000000002" class="icon-icon-0" data-fill-palette-color="accent" id="SvgjsSvg1228"></svg></g></svg></g><g></g></svg></g></svg></g></svg></g></svg></g><defs><mask></mask></defs><mask><g id="SvgjsG1227"><svg viewBox="0 0 320 360" height="360" width="320"><g><svg></svg></g><g><svg viewBox="0 0 320 360" height="360" width="320"><g></g><g transform="matrix(1,0,0,1,102.10059048927549,90)"><svg viewBox="0 0 115.79881902144902 180" height="180" width="115.79881902144902"><g><svg viewBox="0 0 115.79881902144902 180" height="180" width="115.79881902144902"><g><svg viewBox="0 0 192 298.4486395634015" height="180" width="115.79881902144902"><g transform="matrix(1,0,0,1,0,116.0987871088237)"><svg viewBox="0 0 192 182.3498524545778" height="182.3498524545778" width="192"><g id="SvgjsG1226"><svg viewBox="0 0 192 182.3498524545778" height="182.3498524545778" width="192" id="SvgjsSvg1225"><g><svg viewBox="0 0 192 146.83291770573564" height="146.83291770573564" width="192"><g transform="matrix(1,0,0,1,0,0)"><svg width="192" viewBox="-2.2 -36.2 60.150000000000006 46.00000000000001" height="146.83291770573564" data-palette-color="url(#9c1d80d4-8b99-4747-886f-92646faaa5f5)"></svg></g></svg></g><g transform="matrix(1,0,0,1,0,168.2593643890274)"><svg viewBox="0 0 192 14.09048806555041" height="14.09048806555041" width="192"><g transform="matrix(1,0,0,1,0,0)"><svg width="192" viewBox="2.55 -38.5 701.6700000000001 51.5" height="14.09048806555041" data-palette-color="url(#34c4a9eb-3b6c-4d83-bd92-7625273f9925)"></svg></g></svg></g></svg></g></svg></g><g transform="matrix(1,0,0,1,36.67199999999999,0)"><svg viewBox="0 0 118.65600000000002 94.67234042553193" height="94.67234042553193" width="118.65600000000002"><g><svg xmlns="http://www.w3.org/2000/svg" xmlns:xlink="http://www.w3.org/1999/xlink" version="1.1" x="0" y="0" viewBox="1 13 94 75" enable-background="new 0 0 96 96" xml:space="preserve" height="94.67234042553193" width="118.65600000000002" class="icon-icon-0" data-fill-palette-color="accent" id="SvgjsSvg1224"></svg></g></svg></g><g></g></svg></g></svg></g></svg></g></svg></g><defs><mask></mask></defs></svg></g></mask></svg></g></mask><mask><g id="SvgjsG1223"><svg viewBox="0 0 320 360" height="360" width="320"><g><svg></svg></g><g><svg viewBox="0 0 320 360" height="360" width="320"><g></g><g transform="matrix(1,0,0,1,102.10059048927549,90)"><svg viewBox="0 0 115.79881902144902 180" height="180" width="115.79881902144902"><g><svg viewBox="0 0 115.79881902144902 180" height="180" width="115.79881902144902"><g><svg viewBox="0 0 192 298.4486395634015" height="180" width="115.79881902144902"><g transform="matrix(1,0,0,1,0,116.0987871088237)"><svg viewBox="0 0 192 182.3498524545778" height="182.3498524545778" width="192"><g id="SvgjsG1222"><svg viewBox="0 0 192 182.3498524545778" height="182.3498524545778" width="192" id="SvgjsSvg1221"><g><svg viewBox="0 0 192 146.83291770573564" height="146.83291770573564" width="192"><g transform="matrix(1,0,0,1,0,0)"><svg width="192" viewBox="-2.2 -36.2 60.150000000000006 46.00000000000001" height="146.83291770573564" data-palette-color="url(#9c1d80d4-8b99-4747-886f-92646faaa5f5)"></svg></g></svg></g><g transform="matrix(1,0,0,1,0,168.2593643890274)"><svg viewBox="0 0 192 14.09048806555041" height="14.09048806555041" width="192"><g transform="matrix(1,0,0,1,0,0)"><svg width="192" viewBox="2.55 -38.5 701.6700000000001 51.5" height="14.09048806555041" data-palette-color="url(#34c4a9eb-3b6c-4d83-bd92-7625273f9925)"></svg></g></svg></g></svg></g></svg></g><g transform="matrix(1,0,0,1,36.67199999999999,0)"><svg viewBox="0 0 118.65600000000002 94.67234042553193" height="94.67234042553193" width="118.65600000000002"><g><svg xmlns="http://www.w3.org/2000/svg" xmlns:xlink="http://www.w3.org/1999/xlink" version="1.1" x="0" y="0" viewBox="1 13 94 75" enable-background="new 0 0 96 96" xml:space="preserve" height="94.67234042553193" width="118.65600000000002" class="icon-icon-0" data-fill-palette-color="accent" id="SvgjsSvg1220"></svg></g></svg></g><g></g></svg></g></svg></g></svg></g></svg></g><defs><mask></mask></defs><mask><g id="SvgjsG1219"><svg viewBox="0 0 320 360" height="360" width="320"><g><svg></svg></g><g><svg viewBox="0 0 320 360" height="360" width="320"><g></g><g transform="matrix(1,0,0,1,102.10059048927549,90)"><svg viewBox="0 0 115.79881902144902 180" height="180" width="115.79881902144902"><g><svg viewBox="0 0 115.79881902144902 180" height="180" width="115.79881902144902"><g><svg viewBox="0 0 192 298.4486395634015" height="180" width="115.79881902144902"><g transform="matrix(1,0,0,1,0,116.0987871088237)"><svg viewBox="0 0 192 182.3498524545778" height="182.3498524545778" width="192"><g id="SvgjsG1218"><svg viewBox="0 0 192 182.3498524545778" height="182.3498524545778" width="192" id="SvgjsSvg1217"><g><svg viewBox="0 0 192 146.83291770573564" height="146.83291770573564" width="192"><g transform="matrix(1,0,0,1,0,0)"><svg width="192" viewBox="-2.2 -36.2 60.150000000000006 46.00000000000001" height="146.83291770573564" data-palette-color="url(#9c1d80d4-8b99-4747-886f-92646faaa5f5)"></svg></g></svg></g><g transform="matrix(1,0,0,1,0,168.2593643890274)"><svg viewBox="0 0 192 14.09048806555041" height="14.09048806555041" width="192"><g transform="matrix(1,0,0,1,0,0)"><svg width="192" viewBox="2.55 -38.5 701.6700000000001 51.5" height="14.09048806555041" data-palette-color="url(#34c4a9eb-3b6c-4d83-bd92-7625273f9925)"></svg></g></svg></g></svg></g></svg></g><g transform="matrix(1,0,0,1,36.67199999999999,0)"><svg viewBox="0 0 118.65600000000002 94.67234042553193" height="94.67234042553193" width="118.65600000000002"><g><svg xmlns="http://www.w3.org/2000/svg" xmlns:xlink="http://www.w3.org/1999/xlink" version="1.1" x="0" y="0" viewBox="1 13 94 75" enable-background="new 0 0 96 96" xml:space="preserve" height="94.67234042553193" width="118.65600000000002" class="icon-icon-0" data-fill-palette-color="accent" id="SvgjsSvg1216"></svg></g></svg></g><g></g></svg></g></svg></g></svg></g></svg></g><defs><mask></mask></defs></svg></g></mask><mask><g id="SvgjsG1215"><svg viewBox="0 0 320 360" height="360" width="320"><g><svg></svg></g><g><svg viewBox="0 0 320 360" height="360" width="320"><g></g><g transform="matrix(1,0,0,1,102.10059048927549,90)"><svg viewBox="0 0 115.79881902144902 180" height="180" width="115.79881902144902"><g><svg viewBox="0 0 115.79881902144902 180" height="180" width="115.79881902144902"><g><svg viewBox="0 0 192 298.4486395634015" height="180" width="115.79881902144902"><g transform="matrix(1,0,0,1,0,116.0987871088237)"><svg viewBox="0 0 192 182.3498524545778" height="182.3498524545778" width="192"><g id="SvgjsG1214"><svg viewBox="0 0 192 182.3498524545778" height="182.3498524545778" width="192" id="SvgjsSvg1213"><g><svg viewBox="0 0 192 146.83291770573564" height="146.83291770573564" width="192"><g transform="matrix(1,0,0,1,0,0)"><svg width="192" viewBox="-2.2 -36.2 60.150000000000006 46.00000000000001" height="146.83291770573564" data-palette-color="url(#9c1d80d4-8b99-4747-886f-92646faaa5f5)"></svg></g></svg></g><g transform="matrix(1,0,0,1,0,168.2593643890274)"><svg viewBox="0 0 192 14.09048806555041" height="14.09048806555041" width="192"><g transform="matrix(1,0,0,1,0,0)"><svg width="192" viewBox="2.55 -38.5 701.6700000000001 51.5" height="14.09048806555041" data-palette-color="url(#34c4a9eb-3b6c-4d83-bd92-7625273f9925)"></svg></g></svg></g></svg></g></svg></g><g transform="matrix(1,0,0,1,36.67199999999999,0)"><svg viewBox="0 0 118.65600000000002 94.67234042553193" height="94.67234042553193" width="118.65600000000002"><g><svg xmlns="http://www.w3.org/2000/svg" xmlns:xlink="http://www.w3.org/1999/xlink" version="1.1" x="0" y="0" viewBox="1 13 94 75" enable-background="new 0 0 96 96" xml:space="preserve" height="94.67234042553193" width="118.65600000000002" class="icon-icon-0" data-fill-palette-color="accent" id="SvgjsSvg1212"></svg></g></svg></g><g></g></svg></g></svg></g></svg></g></svg></g><defs><mask></mask></defs><mask><g id="SvgjsG1211"><svg viewBox="0 0 320 360" height="360" width="320"><g><svg></svg></g><g><svg viewBox="0 0 320 360" height="360" width="320"><g></g><g transform="matrix(1,0,0,1,102.10059048927549,90)"><svg viewBox="0 0 115.79881902144902 180" height="180" width="115.79881902144902"><g><svg viewBox="0 0 115.79881902144902 180" height="180" width="115.79881902144902"><g><svg viewBox="0 0 192 298.4486395634015" height="180" width="115.79881902144902"><g transform="matrix(1,0,0,1,0,116.0987871088237)"><svg viewBox="0 0 192 182.3498524545778" height="182.3498524545778" width="192"><g id="SvgjsG1210"><svg viewBox="0 0 192 182.3498524545778" height="182.3498524545778" width="192" id="SvgjsSvg1209"><g><svg viewBox="0 0 192 146.83291770573564" height="146.83291770573564" width="192"><g transform="matrix(1,0,0,1,0,0)"><svg width="192" viewBox="-2.2 -36.2 60.150000000000006 46.00000000000001" height="146.83291770573564" data-palette-color="url(#9c1d80d4-8b99-4747-886f-92646faaa5f5)"></svg></g></svg></g><g transform="matrix(1,0,0,1,0,168.2593643890274)"><svg viewBox="0 0 192 14.09048806555041" height="14.09048806555041" width="192"><g transform="matrix(1,0,0,1,0,0)"><svg width="192" viewBox="2.55 -38.5 701.6700000000001 51.5" height="14.09048806555041" data-palette-color="url(#34c4a9eb-3b6c-4d83-bd92-7625273f9925)"></svg></g></svg></g></svg></g></svg></g><g transform="matrix(1,0,0,1,36.67199999999999,0)"><svg viewBox="0 0 118.65600000000002 94.67234042553193" height="94.67234042553193" width="118.65600000000002"><g><svg xmlns="http://www.w3.org/2000/svg" xmlns:xlink="http://www.w3.org/1999/xlink" version="1.1" x="0" y="0" viewBox="1 13 94 75" enable-background="new 0 0 96 96" xml:space="preserve" height="94.67234042553193" width="118.65600000000002" class="icon-icon-0" data-fill-palette-color="accent" id="SvgjsSvg1208"></svg></g></svg></g><g></g></svg></g></svg></g></svg></g></svg></g><defs><mask></mask></defs></svg></g></mask></svg></g></mask></svg></g></mask></svg></g></mask><linearGradient x1="0.054" x2="0.941" y1="0.5" y2="0.5" id="276f57d7-95b6-4691-83ee-dec8be9152de"><stop stop-color="#0f3054" offset="0"></stop><stop stop-color="#3b8dcb" offset="0.498"></stop><stop stop-color="#0f3054" offset="1"></stop></linearGradient></svg><rect width="320" height="360" fill="none" stroke="none" visibility="hidden"></rect></g></svg></g></svg>